<svg width="137" height="97" viewBox="0 0 137 97" fill="none" xmlns="http://www.w3.org/2000/svg">
<path d="M68.7071 4.65368C68.4089 4.7311 68.3371 4.75875 68.1769 4.87489C67.9781 5.01868 67.9201 5.07674 67.7627 5.30901C67.6798 5.43067 67.6412 5.53298 67.5749 5.81503L67.492 6.16896V7.37454V8.57737L67.0971 9.01149C66.774 9.36543 66.5062 9.69447 66.4095 9.85761C66.3985 9.87421 66.3543 10.0512 66.3073 10.2503L66.2217 10.6152L66.2493 12.6836C66.2632 13.82 66.288 15.692 66.3046 16.8395C66.3184 17.987 66.3377 19.4857 66.3488 20.1715L66.3681 21.4158L65.2662 22.5218C63.9352 23.8546 63.891 23.9127 63.775 24.4159C63.6977 24.7449 63.6949 24.7809 63.7115 25.1625C63.7225 25.3837 63.7446 25.8814 63.7612 26.2685C63.8358 27.8889 63.8496 28.1046 63.902 28.3147C63.9766 28.605 64.0815 29.8742 64.3025 33.1536C64.3411 33.7233 64.377 34.2763 64.3853 34.3841C64.3936 34.4892 64.4323 35.0505 64.4682 35.6284C64.5068 36.2063 64.5482 36.8782 64.5648 37.1216C64.5814 37.3649 64.6062 37.7575 64.62 37.9926C64.6366 38.2276 64.6532 38.4958 64.6615 38.5871L64.6753 38.753L64.5261 38.9272C64.4433 39.024 64.3715 39.1042 64.3632 39.1069C64.3549 39.1097 64.3163 39.0682 64.2804 39.0157C64.2417 38.9631 64.1533 38.8387 64.0843 38.7392C64.0153 38.6396 63.8772 38.4461 63.7805 38.3106C63.4657 37.8737 63.2531 37.5723 63.2255 37.5253C63.2117 37.5004 63.1923 37.4755 63.184 37.4672C63.1758 37.4589 63.0984 37.3538 63.0101 37.2322C62.9245 37.1105 62.8444 36.9971 62.8306 36.9833C62.8195 36.9667 62.7532 36.8755 62.687 36.7759C62.6207 36.6764 62.5599 36.5907 62.5489 36.5824C62.5406 36.5741 62.4467 36.4469 62.339 36.2976C62.2341 36.1455 62.0932 35.9464 62.0242 35.8496C61.9552 35.7528 61.8198 35.5621 61.7232 35.4238L61.5464 35.1722H57.6444H53.7423L53.5407 35.4542C53.4303 35.6118 53.3336 35.7445 53.3226 35.7528C53.3143 35.7611 53.2397 35.8634 53.1569 35.9851C52.947 36.292 52.9415 36.3003 52.7868 36.5133C52.7123 36.6211 52.6432 36.7123 52.635 36.7206C52.6267 36.7289 52.5659 36.8146 52.4996 36.9142C52.4306 37.0137 52.3174 37.1741 52.2456 37.2737C52.171 37.3732 51.9777 37.6469 51.8093 37.882C51.6436 38.117 51.4972 38.3216 51.4834 38.3382C51.4696 38.352 51.4309 38.4101 51.3923 38.4627C51.3564 38.5152 51.3177 38.565 51.3094 38.5733C51.3011 38.5816 51.2846 38.6064 51.268 38.6341C51.2238 38.7032 51.0112 39.0074 50.8427 39.2396C50.7571 39.3558 50.6384 39.5217 50.5776 39.6074C50.3677 39.906 50.202 40.1355 50.1634 40.1853C50.1413 40.2102 50.122 40.2379 50.122 40.2461C50.122 40.2517 50.0722 40.3236 50.0115 40.4038C49.9507 40.4839 49.901 40.5614 49.901 40.5724C49.901 40.5946 50.2711 41.1393 50.3346 41.2139C50.3484 41.2278 50.4119 41.3162 50.4754 41.4075C50.6522 41.6619 51.0001 42.1513 51.025 42.1817C51.0388 42.1955 51.1106 42.2951 51.1851 42.4029C51.2625 42.508 51.3508 42.6324 51.384 42.6794C51.4171 42.7237 51.5027 42.8481 51.5745 42.956C51.6491 43.061 51.7292 43.1744 51.7568 43.202C51.8341 43.2878 51.8396 43.3403 51.7844 43.556L51.7347 43.7578L51.8065 44.0509C51.8617 44.2804 51.9004 44.3745 51.986 44.4934C52.0467 44.5763 52.5355 45.0906 53.074 45.6381L54.0544 46.6335L53.8832 46.6418C53.7423 46.6474 53.7064 46.6612 53.6816 46.7082C53.665 46.7414 53.5932 46.8437 53.5269 46.9349C53.4607 47.029 53.3861 47.1285 53.364 47.1589C53.3419 47.1893 53.1182 47.5073 52.8642 47.864C52.5328 48.3286 52.3975 48.4972 52.3919 48.4585C52.3864 48.4281 52.3312 48.2567 52.2732 48.0742C52.1683 47.7562 52.1683 47.7451 52.2124 47.6677C52.2401 47.6235 52.2704 47.5875 52.2815 47.5875C52.2925 47.5875 52.3036 47.5737 52.3036 47.5571C52.3036 47.5405 52.3284 47.4935 52.3616 47.4548C52.461 47.3276 53.0271 46.5312 53.1155 46.3957L53.1652 46.3128L53.0188 46.0999C52.9387 45.9837 52.8504 45.8621 52.8227 45.8344C52.7951 45.804 52.773 45.7653 52.773 45.7459C52.773 45.7266 52.7647 45.7072 52.7537 45.7017C52.7261 45.6906 52.5963 45.5164 52.4831 45.3478C52.4361 45.2786 52.3919 45.2178 52.3837 45.2095C52.3754 45.2012 52.3174 45.121 52.2539 45.0298C52.0606 44.7505 51.7292 44.286 51.6712 44.2141C51.638 44.1754 51.6132 44.1284 51.6132 44.109C51.6132 44.0924 51.6049 44.0758 51.5939 44.0758C51.58 44.0758 51.5414 44.0288 51.5027 43.9707C51.4641 43.9154 51.4226 43.8546 51.4061 43.8353C51.3923 43.8187 51.2984 43.6915 51.199 43.5504C51.0995 43.4094 50.9421 43.1882 50.8482 43.0555C50.5279 42.6103 50.3291 42.3283 50.3015 42.2813C50.2876 42.2564 50.2683 42.2315 50.26 42.2232C50.2517 42.2149 50.1827 42.1237 50.1081 42.0158C49.959 41.8084 49.9618 41.814 49.7381 41.4877C49.6553 41.366 49.5724 41.2554 49.5558 41.2388C49.542 41.2222 49.4785 41.1393 49.4205 41.0536L49.3128 40.8959H45.4025H41.4921L41.3872 41.0563C41.3292 41.142 41.2546 41.2499 41.2215 41.2969C41.1884 41.3411 41.1 41.4656 41.0227 41.5734C40.9481 41.6785 40.8791 41.7725 40.8708 41.7808C40.8625 41.7891 40.8459 41.814 40.8294 41.8388C40.7631 41.9495 40.5505 42.2481 40.4648 42.3532L40.371 42.4721H40.1031C39.9125 42.4721 39.7468 42.4914 39.5259 42.5439C39.2663 42.6048 39.1945 42.6324 39.0509 42.7375C38.7886 42.9283 38.6616 43.1219 38.5787 43.4675L38.5069 43.7578L38.5732 44.0343C38.6229 44.2473 38.6616 44.3468 38.7444 44.4657C38.8466 44.615 38.8493 44.6233 38.8052 44.6869C38.7803 44.7229 38.7555 44.7588 38.7472 44.7671C38.7361 44.7754 38.6947 44.8362 38.6478 44.9054C38.6036 44.9745 38.5373 45.0657 38.5042 45.1072L38.4406 45.1846L37.9298 44.1588C37.6481 43.5947 37.3692 43.0666 37.3084 42.9836C37.1234 42.732 36.9301 42.6103 36.5849 42.5246L36.2866 42.4499L35.9911 42.5246C35.6322 42.6131 35.4444 42.7347 35.24 43.0168C35.1572 43.1302 34.7844 43.8463 34.268 44.8943L33.4284 46.5893L31.3435 46.5921H29.2585L29.1481 46.7469C29.0873 46.8326 28.9575 47.0096 28.8636 47.1423C28.767 47.2723 28.6675 47.4133 28.6427 47.4548C28.6178 47.499 28.5875 47.5322 28.5764 47.5322C28.5654 47.5322 28.5543 47.546 28.5543 47.5626C28.5543 47.5792 28.5267 47.629 28.4936 47.6705C28.4577 47.7147 28.361 47.8447 28.2782 47.9663C28.1953 48.0852 28.1208 48.1875 28.1125 48.1958C28.1014 48.2041 28.0545 48.2705 28.002 48.3479C27.8363 48.594 27.4939 49.0668 27.4718 49.0751C27.458 49.0807 27.4497 49.1028 27.4497 49.1221C27.4497 49.1415 27.4414 49.1636 27.4304 49.1691C27.4166 49.1719 27.3531 49.2576 27.2868 49.3572C27.2177 49.4567 27.1542 49.5424 27.1459 49.5507C27.1377 49.559 27.1018 49.6088 27.0686 49.6613C27.0382 49.7139 26.9775 49.7913 26.9388 49.8328C26.9002 49.8743 26.8698 49.9185 26.8698 49.9323C26.8698 49.9434 26.8477 49.9793 26.8228 50.0097C26.7952 50.0402 26.7621 50.0844 26.7455 50.1093C26.6516 50.2586 26.3617 50.6568 26.3285 50.6844C26.3064 50.7038 26.2899 50.737 26.2899 50.7563C26.2899 50.7784 26.2816 50.795 26.2678 50.795C26.2567 50.795 26.2181 50.8448 26.1794 50.9056C26.1407 50.9665 26.1021 51.0162 26.091 51.0162C26.0772 51.0162 26.0689 51.0301 26.0689 51.0467C26.0689 51.0632 26.0413 51.113 26.0082 51.1545C25.9723 51.1987 25.8756 51.3287 25.7928 51.4504C25.7099 51.5693 25.6326 51.6688 25.6216 51.6743C25.6078 51.6799 25.5995 51.6992 25.5995 51.7158C25.5995 51.7324 25.5774 51.7711 25.547 51.8015C25.5194 51.8347 25.4752 51.89 25.4531 51.9287C25.4117 51.9951 25.4117 52.0034 25.5056 52.1361C25.7873 52.5398 25.9502 52.7693 26.1242 53.0071C26.2291 53.1509 26.3258 53.2892 26.3368 53.3113C26.3451 53.3334 26.3617 53.3583 26.3727 53.3666C26.3865 53.3776 26.5881 53.6569 26.7041 53.8256C26.7262 53.8588 26.7869 53.9445 26.8366 54.0136L26.9278 54.1408H26.5301H26.1297L26.0054 53.9666C25.9364 53.8726 25.7293 53.5823 25.547 53.3251C25.3647 53.0652 25.2046 52.8412 25.1935 52.8274C25.1797 52.8108 25.1107 52.7168 25.0389 52.6145C24.9119 52.4347 24.9091 52.4209 24.9339 52.3241C24.9505 52.2661 24.9643 52.0587 24.9643 51.8651C24.9643 51.5112 24.9643 51.5084 25.0527 51.3812C25.0996 51.3093 25.1466 51.2457 25.1549 51.2374C25.1632 51.2292 25.1852 51.2043 25.1991 51.1766C25.246 51.0992 25.6078 50.5877 25.6271 50.5738C25.6381 50.5655 25.6989 50.4798 25.7652 50.3803C25.8314 50.2807 25.8977 50.1867 25.9088 50.1729C25.9226 50.1563 26.0027 50.0457 26.0883 49.924C26.1766 49.8024 26.2567 49.6973 26.2678 49.6945C26.2788 49.689 26.2899 49.6669 26.2899 49.6475C26.2899 49.6282 26.3009 49.606 26.312 49.6005C26.3258 49.595 26.3893 49.512 26.4556 49.4125C26.5218 49.3129 26.5826 49.2272 26.5909 49.2189C26.5992 49.2106 26.6461 49.1498 26.6903 49.0807C26.7345 49.0115 26.7787 48.9507 26.7869 48.9424C26.7952 48.9341 26.8339 48.8843 26.8698 48.8318C26.9057 48.7793 26.9443 48.7295 26.9526 48.7212C26.9609 48.7129 26.9802 48.688 26.9941 48.6631C27.0106 48.6355 27.1349 48.4585 27.2702 48.265C27.4083 48.0714 27.5574 47.8613 27.6016 47.7949C27.6485 47.7313 27.7065 47.6483 27.7341 47.6124C27.7618 47.5764 27.8667 47.4271 27.9689 47.2833C28.0711 47.1396 28.187 46.9764 28.2257 46.9239C28.4052 46.6805 28.6924 46.2658 28.6924 46.252C28.6924 46.2381 28.2644 45.6326 28.2008 45.5552C28.1898 45.5386 28.1235 45.4473 28.0572 45.3505C27.9882 45.2538 27.8971 45.121 27.8501 45.0574C27.8059 44.9938 27.7121 44.8639 27.643 44.7643C27.5767 44.6676 27.4994 44.5625 27.4718 44.5348C27.4442 44.5044 27.4221 44.4657 27.4221 44.4463C27.4221 44.427 27.411 44.4076 27.4 44.4021C27.389 44.3966 27.3089 44.2943 27.2233 44.1726C27.1349 44.0509 27.0548 43.9376 27.041 43.9237C27.03 43.9072 26.9637 43.8159 26.8974 43.7164C26.8311 43.6168 26.7676 43.5311 26.7538 43.5283C26.7428 43.5228 26.7317 43.5007 26.7317 43.4813C26.7317 43.462 26.7207 43.4398 26.7069 43.4343C26.6958 43.4288 26.6157 43.3265 26.5301 43.2048C26.4445 43.0831 26.3644 42.9698 26.3506 42.956C26.3396 42.9394 26.2733 42.8481 26.207 42.7486C26.1407 42.649 26.0745 42.555 26.0634 42.5412C26.0303 42.5025 25.8673 42.2757 25.6823 42.0158C25.5222 41.7891 25.1963 41.3328 25.0334 41.1089C24.9809 41.037 24.9367 40.9651 24.9367 40.9485C24.9367 40.9347 24.9257 40.9236 24.9091 40.9236C24.8953 40.9236 24.8815 40.9042 24.8815 40.8821C24.8815 40.8462 24.4258 40.8406 20.9518 40.8406C17.2431 40.8406 17.0221 40.8434 16.989 40.8876C16.7432 41.2333 16.5223 41.543 16.4533 41.6425C16.4035 41.7117 16.3566 41.7697 16.3428 41.7752C16.3317 41.7808 16.3207 41.7974 16.3207 41.8112C16.3207 41.8306 16.0611 42.2038 15.9893 42.2868C15.981 42.2979 15.9009 42.2757 15.8181 42.2398C15.5337 42.1126 13.7911 41.3992 11.7945 40.5863C7.95323 39.0267 6.41782 38.3908 4.83822 37.6967C4.13126 37.387 3.76674 37.2432 3.54858 37.1879L3.24481 37.1077L2.94104 37.1824C2.68974 37.2405 2.61241 37.2737 2.4771 37.3732C2.22028 37.5612 2.09324 37.7603 2.00764 38.1087L1.9386 38.4018L2.00764 38.6922C2.05734 38.9051 2.09877 39.0184 2.16781 39.118C2.22028 39.1899 3.16748 40.26 4.2721 41.4904C5.74124 43.1274 6.33221 43.7689 6.462 43.8629C6.69121 44.0316 7.3236 44.2832 11.3775 45.8317C12.2668 46.1718 13.0925 46.487 13.214 46.534C13.4349 46.6197 13.4377 46.6225 13.5868 46.8465C13.6696 46.9681 13.7525 47.0843 13.7663 47.1008C13.7911 47.1285 13.9927 47.405 14.1115 47.5764C14.1336 47.6096 14.2219 47.7341 14.302 47.853C14.3849 47.9746 14.4732 48.0935 14.4953 48.1184C14.5202 48.1433 14.5616 48.2014 14.5892 48.2484L14.6389 48.3341H11.1842H7.72955L7.43406 48.4087C7.08059 48.4972 6.88452 48.6217 6.69397 48.8843C6.59456 49.0226 6.55866 49.1028 6.50342 49.3378C6.43439 49.6143 6.43439 49.6392 6.43439 50.7867C6.43439 51.9343 6.43439 51.9564 6.50342 52.2384C6.63598 52.7804 6.90937 53.0514 7.46444 53.1841L7.76545 53.256H11.6095H15.4563L15.5475 53.3168C15.6524 53.3887 15.7656 53.5906 15.7684 53.7095C15.7684 53.8505 15.6331 54.0551 15.4922 54.127C15.3652 54.1906 14.1474 54.6717 11.5018 55.7031C10.1045 56.2478 7.56386 57.2626 7.31256 57.376C6.99774 57.517 6.8928 57.6331 4.62558 60.3457C3.41878 61.7891 2.38873 63.0334 2.33626 63.1108C2.26998 63.2131 2.22304 63.332 2.17609 63.5284L2.10981 63.8049L2.18161 64.0952C2.26446 64.4408 2.39149 64.6344 2.6566 64.828C2.79744 64.9303 2.872 64.9607 3.1233 65.0187L3.42155 65.0906L3.71151 65.0215C3.97662 64.9579 4.12574 64.8916 5.36291 64.2722C8.1134 62.8951 10.7672 61.6343 13.7663 60.2738L14.6776 59.8618L14.7604 59.9641C14.8074 60.0222 14.9261 60.1881 15.0283 60.3319C15.1305 60.4784 15.2354 60.6278 15.263 60.6637C15.321 60.7439 15.4122 60.8683 15.68 61.2499C15.7905 61.4075 15.8954 61.5568 15.9148 61.579C15.9341 61.6011 15.9783 61.6647 16.0142 61.7172C16.0528 61.7697 16.1467 61.9025 16.2296 62.0131C16.3097 62.1209 16.3759 62.2177 16.3759 62.226C16.3759 62.2343 16.3925 62.2647 16.4146 62.2896C16.514 62.4112 16.7073 62.6795 16.7073 62.6988C16.7073 62.7071 16.7266 62.7348 16.7487 62.7569C16.7708 62.779 16.8399 62.8703 16.9034 62.9615L17.0194 63.1274H20.9435L24.8677 63.1246L24.9505 62.9947C24.9947 62.9228 25.0858 62.7901 25.1521 62.6988C25.2929 62.5053 25.2681 62.5384 25.6464 62.0075C25.8066 61.778 25.9502 61.5872 25.964 61.5845C25.975 61.579 25.9861 61.5568 25.9861 61.5375C25.9861 61.5181 25.9944 61.496 26.0082 61.4905C26.0192 61.4849 26.0827 61.402 26.1518 61.3024C26.2181 61.2029 26.2843 61.1089 26.2981 61.0951C26.3092 61.0785 26.381 60.9789 26.4583 60.8738C26.5329 60.766 26.6102 60.6609 26.6295 60.636C26.6489 60.6139 26.6765 60.5725 26.6903 60.5503C26.7069 60.5254 26.8173 60.3651 26.9388 60.1964C27.0603 60.025 27.2012 59.8286 27.2509 59.7567C27.2978 59.6876 27.3558 59.6102 27.3751 59.5881C27.3945 59.566 27.4635 59.4664 27.5298 59.3669C27.5961 59.2673 27.6762 59.1595 27.7065 59.1235L27.7618 59.0627H29.7887H31.8129L32.1222 58.9908C32.3901 58.9272 32.4536 58.8996 32.611 58.7862C32.8458 58.6148 33.0032 58.3935 33.271 57.8599L33.4837 57.4313H35.2676H37.0543L37.1206 57.3511C37.1538 57.3069 37.2283 57.2073 37.2808 57.1299C37.3333 57.0552 37.3857 56.9916 37.3995 56.9889C37.4106 56.9889 37.4189 56.9723 37.4189 56.9529C37.4189 56.9336 37.441 56.8921 37.4686 56.8617C37.4962 56.834 37.6039 56.6847 37.7088 56.5326C37.8138 56.3806 37.9077 56.2506 37.9159 56.2423C37.927 56.234 37.9877 56.1483 38.054 56.0487C38.1203 55.9492 38.1838 55.8635 38.1921 55.8552C38.2031 55.8469 38.2252 55.8137 38.2446 55.7778C38.2888 55.6948 38.3219 55.7197 38.344 55.8635C38.355 55.9271 38.4158 56.0792 38.4765 56.2036L38.587 56.4248L38.4379 56.6322C38.355 56.7428 38.2805 56.8396 38.2694 56.8451C38.2556 56.8506 38.2473 56.8672 38.2473 56.881C38.2473 56.8949 38.2059 56.9585 38.159 57.0248C38.1093 57.0912 38.0181 57.2184 37.9574 57.3041C37.8966 57.3898 37.8 57.5253 37.7447 57.6C37.6315 57.752 37.6205 57.7935 37.6757 57.8516C37.695 57.8709 37.7668 57.9677 37.8359 58.0645C37.9021 58.1613 37.9822 58.2746 38.0126 58.3161C38.043 58.3576 38.1313 58.4848 38.2114 58.5954C38.2915 58.7088 38.46 58.9466 38.5898 59.1263C38.7223 59.306 38.8273 59.4581 38.8273 59.4636C38.8273 59.4719 38.8438 59.4996 38.8659 59.5245C38.9791 59.6655 39.1034 59.8397 39.1034 59.8618C39.1034 59.8756 39.1145 59.8922 39.1255 59.8978C39.1365 59.9033 39.2581 60.0609 39.3934 60.2517C39.5259 60.4425 39.6723 60.6443 39.7165 60.6996C39.7579 60.7549 39.7938 60.813 39.7938 60.8296C39.7938 60.8434 39.8021 60.86 39.8159 60.8656C39.849 60.8794 40.2633 61.4601 40.2633 61.4932C40.2633 61.5098 40.2715 61.5236 40.2853 61.5236C40.2964 61.5236 40.3351 61.5707 40.3737 61.6287C40.4124 61.684 40.4483 61.7366 40.4566 61.7449C40.4731 61.7587 40.6996 62.0767 40.7935 62.2149C40.8211 62.2536 40.9012 62.367 40.973 62.4693C41.0475 62.5689 41.1911 62.7707 41.2933 62.9173L41.4811 63.1827H45.3859H49.2907L49.4399 62.9836C49.5199 62.873 49.7105 62.6076 49.8596 62.3947C50.0115 62.1817 50.1413 62.002 50.1496 61.9937C50.1606 61.9854 50.2269 61.8914 50.2987 61.7863C50.3705 61.6785 50.4561 61.5541 50.4892 61.5098C50.5224 61.4628 50.6107 61.3384 50.6881 61.2333C50.7626 61.1255 50.8344 61.0259 50.8482 61.0121C50.8731 60.9817 51.221 60.4923 51.3978 60.2379C51.4613 60.1466 51.5248 60.0581 51.5359 60.0443C51.5497 60.0277 51.6518 59.8867 51.7651 59.7263C51.8783 59.566 51.9888 59.4111 52.0136 59.3807C52.0385 59.3503 52.0799 59.2922 52.1047 59.248C52.1296 59.2065 52.16 59.1733 52.171 59.1733C52.1821 59.1733 52.1931 59.1595 52.1931 59.1401C52.1931 59.1235 52.2401 59.0461 52.298 58.9687C52.356 58.8913 52.4527 58.7585 52.5134 58.6756C52.5714 58.5926 52.6294 58.5207 52.6405 58.5152C52.6543 58.5097 52.6626 58.4876 52.6626 58.4654C52.6626 58.3935 52.7095 58.4267 52.8089 58.565C52.8614 58.6424 52.9608 58.7475 53.0299 58.7945L53.1569 58.8857L52.947 59.1733C52.8338 59.3337 52.7288 59.4664 52.715 59.4719C52.7012 59.4775 52.6902 59.4968 52.6902 59.5162C52.6902 59.5328 52.6543 59.5908 52.6129 59.6434C52.5438 59.7291 52.4389 59.8729 52.0688 60.401C52.0247 60.4674 51.9639 60.5503 51.9363 60.5863C51.8755 60.6692 51.5193 61.1697 51.337 61.4269C51.2625 61.5319 51.1603 61.6785 51.1106 61.7476C51.0609 61.8168 50.9642 61.955 50.8979 62.0518C50.8289 62.1486 50.7599 62.2426 50.7461 62.2619C50.7295 62.2813 50.6549 62.3836 50.5776 62.4914C50.3788 62.779 50.1799 63.05 50.1358 63.1081C50.1137 63.1329 50.0943 63.1661 50.0943 63.1799C50.0943 63.1938 50.0833 63.2104 50.0722 63.2159C50.0391 63.2297 49.8734 63.4786 49.8734 63.5145C49.8734 63.5505 50.0391 63.7993 50.0722 63.8132C50.0833 63.8187 50.0943 63.8408 50.0943 63.8629C50.0943 63.8851 50.1026 63.9016 50.1164 63.9016C50.1275 63.9044 50.2048 64.004 50.2876 64.1256C50.3705 64.2473 50.4671 64.38 50.5003 64.4215C50.5362 64.463 50.5638 64.5127 50.5638 64.5293C50.5638 64.5487 50.5748 64.5653 50.5859 64.5653C50.5969 64.5653 50.6273 64.5984 50.6522 64.6427C50.677 64.6842 50.724 64.7478 50.7543 64.7865C50.7847 64.8252 50.9366 65.0353 51.0913 65.2565C51.2459 65.4778 51.4392 65.7432 51.5165 65.851C51.5939 65.9561 51.7126 66.1248 51.7816 66.2243C51.8479 66.3239 51.9087 66.4096 51.917 66.4179C51.939 66.4372 52.3892 67.0732 52.4969 67.2336C52.5493 67.3083 52.5963 67.3774 52.6073 67.3857C52.6211 67.3967 52.8117 67.6622 52.9387 67.8447C53.0216 67.9636 53.2729 68.3203 53.4772 68.6023C53.5904 68.7627 53.6843 68.901 53.6843 68.912C53.6843 68.9258 55.4462 68.9341 57.6002 68.9341H61.5161L61.8861 68.4143C62.0905 68.1295 62.2672 67.8917 62.2783 67.8889C62.2921 67.8834 62.3003 67.8668 62.3003 67.8557C62.3003 67.8336 62.629 67.3636 62.7256 67.2447C62.7477 67.2198 62.8306 67.1009 62.9106 66.9847C62.9935 66.8658 63.0791 66.7442 63.1012 66.711C63.2117 66.5534 63.4188 66.263 63.4326 66.252C63.4409 66.2437 63.5016 66.158 63.5707 66.0584C63.6369 65.9589 63.7032 65.8649 63.717 65.851C63.7363 65.8262 64.0512 65.381 64.1561 65.2289C64.203 65.1598 64.203 65.1625 64.203 65.3478C64.2058 65.4529 64.2169 65.7128 64.2334 65.9285C64.2472 66.1441 64.2721 66.5257 64.2887 66.7774C64.3798 68.2429 64.4019 68.6023 64.4267 69.0033C64.4516 69.4014 64.482 69.9075 64.5648 71.2015C64.5814 71.4366 64.6118 71.9398 64.6338 72.3214C64.6559 72.7002 64.6891 73.1979 64.7029 73.4274C64.7415 74.0413 64.7802 74.6441 64.8272 75.4045C64.8492 75.7778 64.8796 76.281 64.8962 76.5244C64.9321 77.0995 64.968 77.6636 65.0205 78.5014C65.0426 78.8747 65.0757 79.3724 65.0923 79.6075C65.1116 79.9144 65.1116 80.0748 65.0923 80.1688C65.0702 80.26 65.0702 80.4121 65.0895 80.6803C65.1033 80.8877 65.1475 81.543 65.1862 82.1375C65.2248 82.7293 65.269 83.3957 65.2828 83.6169C65.3132 84.062 65.3795 85.0354 65.4209 85.6907C65.4375 85.9257 65.4734 86.4981 65.5037 86.9626C65.5369 87.4272 65.5728 87.9913 65.5866 88.2208C65.6611 89.3545 65.6694 89.4374 65.755 89.7996C65.8351 90.1397 65.8517 90.1785 65.9898 90.372C66.0919 90.513 66.2052 90.6292 66.3405 90.726C66.5227 90.8614 66.5697 90.8808 66.9038 90.961L67.2684 91.0495L67.6356 90.961C67.9753 90.878 68.0167 90.8614 68.2018 90.726C68.3316 90.6319 68.4503 90.5103 68.5331 90.3941C68.6077 90.2946 69.5107 88.63 70.5463 86.7L72.4269 83.1883L72.5153 82.815C72.5622 82.6104 72.8577 80.9236 73.167 79.0683C73.4763 77.2129 73.9872 74.163 74.2992 72.2937C74.6113 70.4218 75.0117 68.0327 75.1857 66.9847C75.3597 65.934 75.5116 65.0547 75.5226 65.027C75.5392 64.9856 75.5668 65.0132 75.68 65.1791C75.7546 65.2897 75.8236 65.3865 75.8319 65.3948C75.8457 65.4059 76.0473 65.6851 76.1633 65.8538C76.2157 65.9285 76.4532 66.2658 76.6245 66.5036C76.699 66.6059 76.8537 66.8216 76.9697 66.9875C77.475 67.7009 77.7981 68.1516 77.8561 68.229C77.892 68.2733 78.0052 68.4337 78.1102 68.5802L78.3007 68.8512H82.2276H86.1518L86.2788 68.6632C86.4224 68.453 86.4224 68.4558 87.0244 67.6069C87.2674 67.264 87.5132 66.9211 87.5684 66.8465C87.6237 66.7691 87.7783 66.5534 87.9136 66.3626C88.0462 66.1718 88.2008 65.9534 88.2588 65.8787C88.3141 65.8013 88.4825 65.5662 88.6344 65.3533C88.7835 65.1404 88.9161 64.9524 88.9299 64.9386C88.9547 64.9081 89.6783 63.8878 89.8578 63.6307L89.9737 63.4648L89.786 63.1965C89.507 62.7984 89.0348 62.1347 88.8774 61.9191C88.8553 61.8886 88.7034 61.6757 88.546 61.449C88.3859 61.225 88.2312 61.0093 88.2036 60.9706C88.176 60.9319 87.9081 60.5586 87.6126 60.1411C87.3144 59.7236 87.0548 59.3558 87.0327 59.3254C87.0106 59.295 86.9471 59.2093 86.8946 59.1346L86.798 58.9963L86.9057 58.9355C87.052 58.8526 87.2122 58.7309 87.2702 58.6645C87.3254 58.5982 87.3061 58.5816 87.527 58.8968C87.5961 58.9963 87.6982 59.1401 87.7562 59.2203C87.8115 59.2977 87.944 59.483 88.0489 59.6351C88.1539 59.7844 88.2837 59.9669 88.3417 60.0443C88.593 60.39 88.6758 60.5033 89.1839 61.2195C89.4794 61.637 89.739 62.0048 89.7611 62.0352C89.9351 62.2758 90.0842 62.4859 90.1781 62.6186C90.2388 62.7071 90.3438 62.8509 90.4128 62.9394L90.5371 63.1025L94.4033 63.1136C96.5296 63.1191 98.2915 63.1191 98.3164 63.1108C98.3412 63.1025 98.4102 63.0334 98.4655 62.9532C98.5235 62.873 98.6146 62.7458 98.6698 62.6712C98.7251 62.5937 98.957 62.2702 99.1835 61.9522C99.4099 61.6315 99.6032 61.3577 99.617 61.3439C99.6391 61.3163 99.8683 60.9955 100.266 60.4342C100.382 60.2683 100.537 60.0526 100.611 59.9503C100.683 59.8508 100.763 59.7374 100.788 59.6987C100.851 59.6074 101.992 58.0064 102.111 57.8461L102.199 57.7216L101.87 57.2571L101.542 56.7925L101.547 56.2257L101.556 55.6589L102.158 56.5022L102.762 57.3483H104.941H107.123L107.846 58.0037C108.818 58.883 108.879 58.9244 109.249 59.0129L109.542 59.0848L109.829 59.0185C110.122 58.9493 110.329 58.8415 110.484 58.6756L110.547 58.6065L110.594 58.6645C110.804 58.9244 111.293 59.0904 111.853 59.0904H112.171L112.566 59.6461C112.784 59.9503 113.035 60.307 113.126 60.4342C113.472 60.9209 114.739 62.7016 114.783 62.7624C114.808 62.7956 114.839 62.8177 114.85 62.8094C114.864 62.8039 114.891 62.8177 114.91 62.8454C114.946 62.8868 114.944 62.8896 114.902 62.8537C114.83 62.7984 114.841 62.8454 114.924 62.9532L114.993 63.0445H118.915C121.654 63.0445 122.833 63.0362 122.833 63.014C122.833 63.0002 122.819 62.9947 122.8 63.0057C122.781 63.0168 122.778 63.014 122.789 62.9919C122.8 62.9753 122.819 62.967 122.833 62.9753C122.866 62.9975 122.977 62.8481 122.958 62.8039C122.952 62.7818 122.955 62.7707 122.969 62.7818C123.005 62.8011 123.256 62.4417 123.231 62.403C123.22 62.3864 123.223 62.3808 123.242 62.3891C123.256 62.4002 123.306 62.3587 123.35 62.2979C123.419 62.2066 123.438 62.1956 123.471 62.226C123.493 62.2481 124.38 62.826 125.443 63.5173C126.506 64.2058 127.583 64.9026 127.837 65.0685C128.089 65.2317 128.304 65.3671 128.312 65.3671C128.32 65.3671 128.329 65.0326 128.329 64.6233V63.8823L125.23 61.8665C123.524 60.7605 121.582 59.4968 120.914 59.0627C120.246 58.6286 119.544 58.1751 119.354 58.0534L119.009 57.8322L116.496 55.3298C115.115 53.9556 113.532 52.3822 112.983 51.8347L111.98 50.8393L115.493 47.3414L119.003 43.8408L119.434 43.6113C119.671 43.4841 120.119 43.2463 120.431 43.0804C120.743 42.9172 122.11 42.1928 123.468 41.4711C124.827 40.7494 126.479 39.8729 127.136 39.5245L128.329 38.8912V38.2055C128.329 37.564 128.326 37.5197 128.282 37.5336C128.254 37.5419 128.196 37.5557 128.149 37.5668C128.105 37.5778 127.937 37.658 127.776 37.7437C127.616 37.8322 126.269 38.5456 124.78 39.3337C123.292 40.1217 122.071 40.777 122.066 40.7909C122.06 40.8019 120.467 40.813 118.528 40.813H114.999L114.913 40.9347C114.819 41.0619 114.803 41.1061 114.858 41.0729C114.877 41.0619 114.88 41.0646 114.869 41.0867C114.858 41.1033 114.839 41.1116 114.825 41.1033C114.811 41.095 114.775 41.1255 114.745 41.1697C114.681 41.2582 114.67 41.2969 114.72 41.2665C114.739 41.2554 114.742 41.2582 114.731 41.2803C114.72 41.2969 114.701 41.3052 114.687 41.2969C114.673 41.2886 114.637 41.319 114.607 41.3633C114.543 41.4517 114.532 41.4904 114.582 41.46C114.601 41.449 114.604 41.4517 114.593 41.4739C114.582 41.4904 114.562 41.4987 114.549 41.4904C114.535 41.4821 114.499 41.5098 114.469 41.5485C114.408 41.6259 114.391 41.6868 114.438 41.6563C114.455 41.6481 114.458 41.6591 114.447 41.684C114.435 41.7172 114.424 41.7199 114.411 41.6978C114.4 41.6785 114.267 41.8416 114.076 42.1098L113.762 42.555H112.635C111.517 42.555 111.505 42.555 111.227 42.6269C111.003 42.6822 110.912 42.7209 110.774 42.8205C110.677 42.8896 110.586 42.9698 110.569 43.003C110.539 43.0583 110.539 43.0583 110.467 42.9808C110.304 42.8039 110.1 42.6988 109.793 42.6241C109.501 42.555 109.479 42.555 108.371 42.555L107.244 42.5578L106.941 42.6324C106.692 42.696 106.609 42.7292 106.479 42.826C106.22 43.0168 106.098 43.2076 106.01 43.5643L105.935 43.8684L105.933 45.215V46.5644H104.408L102.881 46.5617L102.216 45.9616C101.848 45.6326 101.517 45.3229 101.481 45.2786C101.445 45.2316 101.291 45.0215 101.141 44.8086C100.99 44.5957 100.664 44.1339 100.412 43.7855C100.164 43.4343 99.8932 43.0555 99.8103 42.9421C99.7303 42.8288 99.6474 42.7099 99.6253 42.6794C99.6032 42.649 99.4541 42.4361 99.2912 42.2094C99.131 41.9799 98.9294 41.7006 98.8466 41.5872C98.7637 41.4739 98.6118 41.2609 98.5097 41.1172L98.3219 40.8545L94.4281 40.8489L90.5371 40.8406L90.1229 41.4268C89.8964 41.7476 89.67 42.0628 89.6258 42.1237C89.5788 42.1873 89.4988 42.2979 89.4463 42.3753C89.3938 42.4499 89.3413 42.5246 89.3275 42.5412C89.3165 42.555 89.2309 42.6739 89.1398 42.8039C89.0486 42.9338 88.9575 43.0583 88.9382 43.0831C88.9188 43.108 88.8498 43.1993 88.789 43.2905C88.535 43.6528 88.2561 44.0482 87.8474 44.6178C87.7452 44.756 87.6181 44.9358 87.5602 45.0187C87.5022 45.1017 87.2868 45.4031 87.0796 45.6934C86.8753 45.981 86.7013 46.2326 86.693 46.252C86.682 46.2796 86.8228 46.5146 86.8808 46.5644C86.8891 46.5727 86.9471 46.6529 87.0106 46.7441C87.0741 46.8354 87.2067 47.0207 87.3033 47.1589C87.4027 47.2944 87.5298 47.4741 87.5878 47.5571C87.6458 47.6373 87.7617 47.8004 87.8474 47.9166C87.9937 48.1184 88.1097 48.2815 88.3113 48.5719C88.3638 48.6465 88.4825 48.8125 88.5764 48.9424C88.778 49.2217 89.2751 49.924 89.3413 50.0208C89.369 50.0595 89.5153 50.2669 89.6727 50.4826C89.8301 50.6983 90.0373 50.9886 90.1339 51.1268C90.2278 51.2623 90.3189 51.384 90.3327 51.3923C90.3465 51.4006 90.3576 51.6688 90.3576 51.9896V52.5702L90.2554 52.714C90.2002 52.7914 90.1091 52.9159 90.0538 52.9933C89.9986 53.068 89.8163 53.3223 89.6506 53.5546C89.4849 53.7896 89.2585 54.1049 89.148 54.2597C88.9023 54.6081 88.7007 54.8902 88.5874 55.0533C88.477 55.2109 88.0324 55.8331 88.002 55.869C87.991 55.8828 87.9026 56.0073 87.8087 56.1427L87.6375 56.3888L87.6237 55.8524L87.6071 55.316L87.712 55.1639C87.77 55.0809 87.9109 54.8819 88.0241 54.7215C88.1373 54.5611 88.2837 54.3565 88.3472 54.2652C88.4107 54.174 88.4742 54.0855 88.488 54.0717C88.4991 54.0551 88.593 53.9251 88.6951 53.7813C88.7973 53.6376 88.9133 53.4744 88.952 53.4219C89.0403 53.303 89.5706 52.5564 89.7832 52.2522C89.8716 52.1278 89.9434 52.0172 89.9434 52.0089C89.9434 51.9951 89.438 51.2734 89.1315 50.8503C89.0928 50.7978 88.7697 50.3416 88.4135 49.8411C88.0572 49.3378 87.712 48.8539 87.6458 48.7654C87.5795 48.6742 87.4166 48.4447 87.2785 48.2484C86.8615 47.6566 86.4334 47.0566 86.3036 46.8824C86.2374 46.7912 86.1683 46.6916 86.1545 46.6612C86.1297 46.6059 86.1076 46.6059 84.0337 46.6142C82.8793 46.617 81.9349 46.617 81.9349 46.6114C81.9349 46.6087 81.9791 46.4566 82.0315 46.2768C82.084 46.0943 82.1282 45.9423 82.1282 45.9367C82.1282 45.934 83.0202 45.9284 84.111 45.9284H86.0938L86.3257 45.6022C86.4555 45.4252 86.5909 45.2344 86.6323 45.1819C86.7041 45.0878 87.2647 44.297 87.3475 44.1781C87.3862 44.1228 88.1373 43.0666 88.8526 42.0628C89.021 41.8278 89.1922 41.5872 89.2364 41.5236C89.38 41.3135 89.7915 40.7439 89.8053 40.73C89.8136 40.7217 89.8495 40.672 89.8826 40.6167L89.9406 40.5199L89.8384 40.3789C89.7832 40.3014 89.6838 40.166 89.6203 40.0775C89.5567 39.9862 89.3662 39.7208 89.1977 39.4857C88.8084 38.941 88.5322 38.5511 88.4797 38.4709C88.43 38.3991 87.8639 37.6055 87.7645 37.4672C87.7258 37.4147 87.3917 36.9474 87.0244 36.4303C86.6544 35.9132 86.3368 35.4653 86.3147 35.4349C86.2926 35.4044 86.2346 35.327 86.1904 35.2607L86.1048 35.1445H82.189H78.2759L78.0687 35.4376C77.9555 35.598 77.7953 35.8247 77.7125 35.9436C77.6297 36.0598 77.5275 36.2036 77.4833 36.2644C77.4391 36.3252 77.3535 36.4497 77.29 36.5409C77.2265 36.6321 77.1602 36.7206 77.1464 36.74C77.1298 36.7566 77.0359 36.8893 76.9365 37.0359C76.8371 37.1796 76.7404 37.2985 76.7211 37.3013C76.699 37.3013 76.6327 37.2654 76.5692 37.2211C76.4836 37.1603 76.3566 37.116 76.0998 37.0552L75.7435 36.9723L75.379 37.0635C75.0366 37.1465 75.0007 37.1631 74.7991 37.3124C74.6803 37.3981 74.4235 37.6221 74.2247 37.8046C73.885 38.1198 73.8602 38.1364 73.8242 38.0866C73.7524 37.9871 73.7524 37.8958 73.827 37.329C73.8684 37.0165 73.932 36.5381 73.9678 36.2644C74.0038 35.9906 74.0645 35.5233 74.1032 35.2275C74.1446 34.9316 74.2247 34.3095 74.2854 33.8477C74.3462 33.3859 74.3987 33.0043 74.4014 32.9988C74.4069 32.996 75.1664 32.4983 76.0942 31.8928C77.0194 31.2872 77.8368 30.7508 77.9086 30.6982C77.9831 30.6485 78.1074 30.5102 78.1902 30.3941C78.3366 30.1839 78.3394 30.1756 78.4774 29.5867C78.5548 29.2604 78.6873 28.6797 78.7729 28.3009C79.3252 25.851 79.8858 23.5532 80.0598 23.0333C80.0929 22.9338 80.1537 22.7071 80.1979 22.5273L80.2752 22.201L80.1841 21.8361C80.104 21.5015 80.0819 21.4545 79.9521 21.272C79.8555 21.142 79.7367 21.0231 79.6069 20.9263C79.4247 20.7964 79.3749 20.7743 79.0463 20.6941L78.6873 20.6056L78.3283 20.6885C77.9831 20.7687 77.9638 20.7798 77.718 20.9568C77.5799 21.0563 76.8122 21.6536 76.0114 22.2812C75.2105 22.9089 74.545 23.4205 74.5312 23.4149C74.5146 23.4094 74.1639 23.1329 73.7497 22.7983L72.9958 22.19L72.9792 20.6968C72.9682 19.8756 72.9461 16.9391 72.9295 14.1712L72.8991 9.13869L72.808 8.75986C72.7031 8.31468 72.866 8.56355 71.3195 6.47865C70.295 5.0961 70.2398 5.02697 70.0409 4.88319C69.8476 4.74216 69.8035 4.72557 69.4776 4.64539C69.2815 4.60114 69.1075 4.56243 69.0882 4.56519C69.0689 4.56519 68.8977 4.60667 68.7071 4.65368ZM78.6542 22.2785C78.5354 22.5052 77.5938 26.3791 77.0166 29.0198C76.9669 29.2465 76.9144 29.4484 76.8979 29.4678C76.8813 29.4843 76.6245 29.6586 76.329 29.8521C75.4177 30.4466 73.3714 31.7794 73.1477 31.9232C73.0289 32.0006 72.9268 32.0808 72.9185 32.1029C72.9129 32.125 72.8743 32.3932 72.8356 32.6974C72.739 33.4523 72.5705 34.7298 72.2447 37.2156L72.1093 38.2497L72.7611 39.4609C73.1228 40.1272 73.4211 40.672 73.4294 40.6747C73.4376 40.6747 73.7166 40.4231 74.0535 40.1134C75.3072 38.9631 75.7242 38.5871 75.7435 38.5816C75.7546 38.576 76.0556 39.2756 76.4146 40.1328L77.0663 41.6923L75.9948 45.3118C75.4039 47.2999 74.7963 49.3516 74.6417 49.8687C74.313 50.9803 73.7469 52.8855 73.4929 53.7399C73.3935 54.0744 73.2913 54.4173 73.2692 54.503L73.2278 54.6579L74.186 56.1732L75.147 57.6857L74.7853 59.848C74.5864 61.0342 74.2081 63.3016 73.943 64.8833C73.6779 66.4649 73.1422 69.6614 72.7528 71.9896C72.3634 74.315 72.0044 76.4691 71.9519 76.7732C71.8995 77.0774 71.6647 78.4876 71.4272 79.9089L70.9964 82.4915L70.7921 82.8675C70.4082 83.5781 68.315 87.4742 68.1631 87.7645C67.9449 88.1738 67.7682 88.4945 67.7461 88.5166C67.7185 88.5443 67.7268 87.1728 67.7544 87.1285C67.7682 87.1064 67.7654 87.0981 67.7461 87.112C67.7212 87.1258 67.7185 87.0262 67.7406 86.9626C67.7571 86.9184 67.7516 86.8603 67.7268 86.8271C67.7047 86.7967 67.7074 86.7912 67.7351 86.8078C67.7627 86.8244 67.7682 86.8106 67.7599 86.747C67.7516 86.7 67.7378 86.6474 67.724 86.6281C67.7102 86.6059 67.7157 86.6004 67.7378 86.617C67.7654 86.6336 67.7682 86.6253 67.7433 86.5783C67.724 86.5479 67.7212 86.5202 67.7351 86.5202C67.7489 86.5202 67.7599 86.4705 67.7627 86.4069C67.7654 86.346 67.7571 86.3018 67.7461 86.3101C67.7351 86.3156 67.7212 86.299 67.7212 86.2686C67.7185 86.2382 67.7295 86.2216 67.7461 86.2327C67.7627 86.2437 67.7599 86.2244 67.7406 86.1884C67.7212 86.1552 67.7185 86.1331 67.7323 86.1414C67.7433 86.1497 67.7571 85.9727 67.7599 85.7515C67.7627 85.5275 67.7654 85.3257 67.7654 85.3036C67.7682 85.2815 67.7654 85.1957 67.7599 85.1183C67.7544 85.0381 67.7571 84.9718 67.7654 84.9718C67.7765 84.9718 67.7848 84.9469 67.7848 84.9192C67.7848 84.8888 67.7737 84.8722 67.7599 84.8805C67.7489 84.886 67.7406 84.8446 67.7433 84.781C67.7489 84.7201 67.7571 84.6759 67.7654 84.6814C67.7737 84.687 67.782 84.4519 67.782 84.1616C67.7792 83.8685 67.7875 83.5892 67.7986 83.5394C67.8096 83.4924 67.8069 83.4454 67.7958 83.4371C67.7737 83.4233 67.7848 82.956 67.8096 82.8067C67.8179 82.7514 67.8124 82.7348 67.7875 82.7486C67.7627 82.7624 67.7627 82.7597 67.7875 82.732C67.8124 82.7071 67.8124 82.6795 67.793 82.6408C67.771 82.6021 67.771 82.591 67.793 82.6048C67.8096 82.6159 67.8234 82.6104 67.8234 82.5965C67.8234 82.5799 67.8069 82.5661 67.7903 82.5634C67.7654 82.5634 67.7654 82.5578 67.7848 82.5495C67.8041 82.5412 67.8096 82.497 67.8041 82.4472C67.7875 82.3338 67.7875 82.3173 67.8096 82.2398C67.8234 82.2011 67.8179 82.179 67.7986 82.179C67.7792 82.179 67.7737 82.1652 67.7848 82.1458C67.8179 82.0961 67.8207 81.7891 67.7903 81.8085C67.771 81.8195 67.771 81.8085 67.7875 81.7753C67.8013 81.7449 67.8124 81.5956 67.8124 81.4407C67.8096 81.2886 67.8179 81.167 67.8317 81.1753C67.8428 81.1808 67.851 81.1753 67.851 81.1587C67.851 81.1449 67.84 81.1255 67.8289 81.1172C67.793 81.0951 67.7903 80.9347 67.8262 80.9347C67.8483 80.9347 67.8455 80.9209 67.8207 80.8905C67.793 80.8573 67.793 80.8352 67.8179 80.7964C67.8372 80.7633 67.84 80.7384 67.8234 80.7273C67.782 80.7024 67.7875 80.4093 67.8317 80.4093C67.8566 80.4093 67.8538 80.401 67.8262 80.3844C67.8013 80.3679 67.7986 80.3457 67.8151 80.3098C67.8317 80.2794 67.84 79.9863 67.8372 79.6351C67.8317 79.154 67.84 78.9936 67.8704 78.93L67.909 78.847L67.8234 78.9438C67.7765 78.9964 67.5169 79.3116 67.2518 79.6434C66.9839 79.9724 66.7575 80.2434 66.7464 80.2434C66.7354 80.2434 66.7188 80.0969 66.7105 79.9171C66.694 79.5853 66.0892 69.9047 66.0146 68.7544C65.9925 68.4032 65.9483 67.7064 65.918 67.2059C65.8876 66.7027 65.8544 66.1994 65.8489 66.0861C65.8406 65.9727 65.7357 64.2943 65.6142 62.3559L65.3933 58.8332L65.6529 58.5539C65.7965 58.4018 66.4233 57.7272 67.0474 57.058L68.1797 55.8414L68.1824 51.9038C68.1824 49.7388 68.1907 47.9719 68.199 47.9829C68.2073 47.9912 68.2128 48.4198 68.21 48.9369C68.21 49.454 68.2183 49.8853 68.2294 49.8908C68.2404 49.8991 68.2515 49.4788 68.2515 48.9618C68.2515 48.4419 68.2625 47.9995 68.2763 47.9802C68.2929 47.958 68.2818 47.947 68.2404 47.947C68.21 47.947 68.1824 47.9359 68.1824 47.9221C68.1824 47.9083 68.2045 47.9 68.2294 47.9027C68.2791 47.9055 68.2846 47.853 68.2653 47.4907C68.2598 47.3774 68.257 47.3663 68.2377 47.4216C68.2211 47.4741 68.2183 47.4548 68.2183 47.3469C68.2211 47.2695 68.2294 47.2087 68.2404 47.217C68.2515 47.2225 68.2542 47.2557 68.2459 47.2916C68.2377 47.3248 68.2377 47.3442 68.2487 47.3331C68.2598 47.3248 68.2708 47.2612 68.2708 47.1949C68.2708 47.0317 68.2653 47.0124 68.2377 47.076C68.2238 47.1064 68.2156 45.9893 68.2183 44.5044L68.2238 41.8776L68.2294 44.4408C68.2349 45.8538 68.2487 47.0068 68.2598 47.0068C68.2736 47.0068 68.2791 46.8879 68.2736 46.7414C68.268 46.5976 68.2736 46.4842 68.2874 46.4925C68.315 46.5091 68.3122 46.4262 68.2818 46.3764C68.2708 46.3598 68.2763 46.3432 68.2901 46.3432C68.3067 46.3432 68.3205 46.3239 68.3205 46.3017C68.3205 46.2796 68.3095 46.2603 68.2984 46.2603C68.2708 46.2603 68.2763 45.8234 68.3039 45.7598C68.315 45.7321 68.3122 45.7045 68.2956 45.6934C68.2791 45.6851 68.2653 45.6464 68.2653 45.6077C68.2653 45.569 68.2736 45.5441 68.2874 45.5496C68.2984 45.5579 68.3067 45.298 68.3067 44.9717C68.3067 44.6454 68.3177 44.38 68.3316 44.38C68.3454 44.38 68.3426 44.3634 68.3288 44.344C68.3122 44.3274 68.3039 44.2002 68.3122 44.062C68.3343 43.5422 68.3343 43.3624 68.315 43.3762C68.3012 43.3818 68.2929 43.3762 68.2929 43.3597C68.2929 43.3458 68.3067 43.3237 68.3233 43.3126C68.3454 43.3016 68.3426 43.2878 68.3177 43.2712C68.2846 43.2518 68.2846 43.2463 68.3177 43.2463C68.3481 43.2463 68.3481 43.238 68.3177 43.1993C68.2956 43.1744 68.2929 43.1606 68.3067 43.1689C68.3233 43.1799 68.3343 43.1191 68.3343 43.0113C68.3343 42.9117 68.3233 42.8426 68.3095 42.8509C68.2956 42.8619 68.2929 42.8509 68.3067 42.8315C68.3177 42.8122 68.3316 42.5522 68.3343 42.2536C68.3371 41.955 68.3426 41.7061 68.3481 41.6978C68.3509 41.6895 68.3536 41.6757 68.3509 41.6646C68.3509 41.6536 68.3619 41.6121 68.3757 41.5734C68.3895 41.5347 68.3978 41.5043 68.3923 41.5043C68.3647 41.5043 68.2377 41.7559 68.2349 41.814C68.2349 41.8554 68.2266 41.8637 68.2183 41.8361C68.21 41.814 68.1741 41.7642 68.141 41.7255C68.1079 41.6868 67.6826 41.1255 67.1966 40.4784L66.3101 39.3005L66.1831 37.3124C66.1113 36.2201 66.0478 35.2551 66.0422 35.1722C66.0284 35.0063 66.0063 34.691 65.9042 33.126C65.7357 30.6153 65.5534 28.3036 65.5175 28.1737C65.4982 28.1156 65.5231 28.0907 65.9732 27.7036C66.578 27.1838 67.7654 26.1441 69.6571 24.474C70.596 23.6444 71.383 22.967 71.3996 22.967C71.419 22.9697 71.8111 23.2739 72.2695 23.6444C72.7279 24.015 73.4238 24.5763 73.8104 24.8887L74.5174 25.4611L74.7245 25.298C74.8405 25.2095 75.7739 24.4767 76.7984 23.6721C77.823 22.8702 78.6652 22.2149 78.6708 22.2176C78.6763 22.2232 78.668 22.2508 78.6542 22.2785ZM4.10088 38.7834C5.80752 39.53 7.32913 40.1604 11.9022 42.0158C14.4042 43.0306 16.7294 44.0039 17.1354 44.2058C17.7843 44.5293 18.4526 45.1653 18.8392 45.8261C19.5738 47.087 19.5379 48.8318 18.7481 50.0485C18.6183 50.2503 18.3587 50.5738 18.2289 50.6955L18.1433 50.7784L18.3035 50.9443C19.074 51.749 19.4495 52.855 19.3556 54.044C19.2976 54.7768 19.0574 55.4487 18.6376 56.0487C18.4554 56.3087 17.997 56.7843 17.7429 56.975C17.4087 57.2239 17.1464 57.3566 15.7408 57.9815C11.4355 59.8895 7.67708 61.6591 4.2003 63.4095C3.78331 63.6196 3.43812 63.7883 3.43535 63.7827C3.43259 63.78 3.68665 63.4703 3.99871 63.097C4.62005 62.3559 5.80475 60.943 6.96736 59.5494C7.37607 59.0599 7.73231 58.6396 7.75716 58.612C7.78478 58.5843 7.94219 58.5069 8.10788 58.4378C8.6878 58.1945 10.6016 57.4313 11.7918 56.9668C14.3849 55.952 14.7825 55.7971 15.3956 55.551C16.2185 55.2247 16.3069 55.175 16.5527 54.9123C16.9034 54.539 17.0525 54.1436 17.0332 53.6431C17.0138 53.173 16.8564 52.808 16.5278 52.4762C16.3152 52.2605 16.1302 52.1416 15.8595 52.0476L15.6441 51.9702L11.6868 51.9564L7.73231 51.9426L7.72403 50.7895L7.7185 49.6337L11.6675 49.6282C14.8681 49.6199 15.6386 49.6116 15.727 49.5812C16.2489 49.4069 16.6328 49.0917 16.8399 48.6659C16.989 48.3617 17.0387 48.1571 17.0387 47.8557C17.0387 47.5073 16.9476 47.1976 16.757 46.8879C16.641 46.7027 16.3511 46.4345 16.1578 46.3321C15.9037 46.1994 14.8985 45.804 11.6399 44.5597C9.32296 43.6749 8.68504 43.4288 7.83725 43.0831L7.18276 42.8177L5.54793 40.9927C4.64767 39.989 3.75569 38.9936 3.56515 38.7834C3.3746 38.5705 3.23652 38.4046 3.25861 38.4129C3.28071 38.4239 3.6618 38.5898 4.10088 38.7834ZM23.6664 47.994V52.2467L22.5065 53.4081L21.3467 54.5722V49.1581V43.744H22.5065H23.6664V47.994ZM38.6201 48.417L40.9536 53.0901H39.6391H38.3274L37.3139 51.0439C36.7589 49.9185 36.2977 48.9977 36.2866 48.9977C36.2784 48.9977 35.3367 50.8669 34.1906 53.1537C33.0446 55.4376 32.0532 57.4092 31.9869 57.5336L31.8626 57.7631H26.5992H21.3329L22.5065 56.5879L23.6802 55.4128H27.0686H30.4598L33.3677 49.5812C34.9639 46.3736 36.2756 43.7468 36.2784 43.7468C36.2839 43.744 37.336 45.8455 38.6201 48.417ZM45.4688 43.838C45.8692 43.9044 46.4325 44.0482 46.7694 44.1726C47.4792 44.4325 48.3573 44.9413 48.9345 45.4252C50.0391 46.3487 50.9007 47.7119 51.2404 49.0668C51.395 49.6807 51.4309 50.007 51.4337 50.7674C51.4337 51.4559 51.4144 51.6882 51.3067 52.2135C51.0139 53.6735 50.0667 55.2303 48.8958 56.1842C48.095 56.8396 46.971 57.3898 46.0349 57.5944C45.3528 57.741 45.2893 57.7437 42.9088 57.7548L40.6775 57.7659L40.1114 56.6128C39.7993 55.9796 39.5453 55.4542 39.5453 55.4515C39.5453 55.4459 40.7962 55.4376 42.3289 55.4321C44.7756 55.4238 45.1374 55.4183 45.3307 55.3768C46.2889 55.1805 47.0677 54.7685 47.7194 54.1132C49.5586 52.2661 49.6 49.4152 47.8078 47.5571C47.1174 46.8354 46.3359 46.4013 45.3804 46.1994C45.096 46.1414 45.0131 46.1386 43.5992 46.1275L42.119 46.1192L40.9674 44.9441L39.8131 43.7689L42.4891 43.78C44.9082 43.7882 45.1954 43.7938 45.4688 43.838ZM62.1899 43.8601C62.1926 43.9099 62.2285 44.4298 62.27 45.016C62.3142 45.6022 62.3418 46.0888 62.3362 46.0999C62.3307 46.1137 60.7566 46.122 58.8374 46.122H55.3523L54.198 44.9468L53.0437 43.7717H57.6168H62.1899V43.8601ZM81.1976 44.6205C81.0705 45.0602 80.6038 46.6363 80.162 48.1267C79.7229 49.6171 79.1927 51.4034 78.9883 52.0946C78.784 52.7859 78.6155 53.3528 78.6128 53.3555C78.5299 53.4081 75.7629 54.9095 75.7573 54.904C75.7518 54.8985 76.0031 54.0247 76.3152 52.9629C76.63 51.8983 76.9476 50.8172 77.0221 50.56C77.0994 50.3001 77.3866 49.3295 77.66 48.4032C77.9334 47.4741 78.3283 46.1248 78.541 45.4031C78.7536 44.6814 78.9469 44.0316 78.969 43.9569L79.0132 43.827H80.22H81.4295L81.1976 44.6205ZM113.825 44.7588L113.822 45.6934L112.665 46.8409L111.511 47.9884V45.9063V43.827H112.671H113.831L113.825 44.7588ZM101.169 46.7469C102.84 48.2511 104.875 50.0844 105.695 50.8227C106.513 51.561 107.195 52.1665 107.206 52.1721C107.22 52.1776 107.231 50.3498 107.231 48.0189V43.8546H108.39H109.55V50.8227C109.55 54.6551 109.545 57.7908 109.536 57.7908C109.528 57.7908 109.028 57.3456 108.424 56.8008C107.449 55.9215 106.19 54.7851 103.074 51.984C102.558 51.5195 101.384 50.4632 100.465 49.6365C99.5452 48.8097 98.6063 47.9636 98.3743 47.7562L97.9546 47.3801V45.6132L97.9518 43.8436L98.043 43.9293C98.0899 43.9763 99.4983 45.2427 101.169 46.7469ZM92.8071 45.0215L93.9476 46.1635V50.8227V55.4819L92.7878 56.6432L91.6279 57.8046V50.842C91.6279 47.0151 91.6362 43.8823 91.6472 43.8823C91.661 43.8823 92.183 44.3966 92.8071 45.0215ZM62.9604 47.3635C63.0018 47.4188 63.0183 47.488 63.0183 47.582C63.0183 47.6594 63.0322 47.8806 63.0487 48.0714C63.0653 48.265 63.0736 48.4281 63.0653 48.4336C63.0598 48.4392 62.9907 48.4336 62.9162 48.417C62.7864 48.3894 62.767 48.3728 62.6511 48.2014C62.582 48.0991 62.4274 47.8778 62.3059 47.7119L62.0849 47.4078L62.281 47.3884C62.3915 47.3774 62.5489 47.3497 62.6317 47.3304C62.8582 47.2695 62.8968 47.2751 62.9604 47.3635ZM62.6041 49.7166C62.6041 49.8079 62.7339 51.6218 62.7532 51.8237L62.767 51.9564H58.1028H53.4358V50.795V49.6337H58.02H62.6041V49.7166ZM100.272 55.1943V57.8184H99.1117H97.9518V54.1823V50.5462L99.1117 51.5582L100.272 52.5702V55.1943ZM96.6539 51.984V52.3158H95.9497H95.2455V51.984V51.6522H95.9497H96.6539V51.984ZM47.7056 51.7683C47.6946 51.8043 47.6283 51.9536 47.5592 52.1002L47.435 52.3711H44.7342H42.0306L41.8649 52.0421L41.6993 51.7103L44.7121 51.7075L47.7249 51.7048L47.7056 51.7683ZM112.679 54.8072L113.831 55.9437V56.8672V57.7908H112.671H111.511V55.7307C111.511 54.5971 111.514 53.6707 111.519 53.6707C111.525 53.6707 112.047 54.1823 112.679 54.8072ZM51.8811 54.8791C52.2732 55.4183 52.4416 55.6589 52.4416 55.6865C52.4416 55.7031 52.4499 55.7169 52.4637 55.7169C52.4748 55.7169 52.5134 55.7639 52.5521 55.822C52.5908 55.8773 52.6267 55.9298 52.635 55.9381C52.6432 55.9464 52.7178 56.0487 52.8006 56.1676C52.8835 56.2893 52.9801 56.4193 53.0133 56.4635L53.0768 56.5382L53.016 56.5907C52.9829 56.6211 52.889 56.7372 52.8034 56.8534L52.646 57.0663L52.5245 56.8755C52.4555 56.7732 52.3919 56.6875 52.3809 56.6847C52.3671 56.6847 52.3588 56.6736 52.3588 56.6571C52.3588 56.6432 52.3395 56.6073 52.3174 56.5824C52.2539 56.5022 51.9639 56.104 51.8313 55.9105C51.7651 55.8109 51.7043 55.7252 51.696 55.7169C51.6877 55.7086 51.6159 55.6119 51.5331 55.4985L51.3867 55.2939L51.4364 55.2081C51.4668 55.1611 51.5441 55.0256 51.6132 54.9095C51.6822 54.7906 51.7402 54.6938 51.7402 54.6938C51.743 54.6938 51.8037 54.7768 51.8811 54.8791ZM63.0045 55.7363C63.0156 55.9022 63.0515 56.4303 63.0846 56.9114L63.1426 57.7908H58.4839H53.8224V57.6967C53.8224 57.6083 53.8887 57.5391 54.9905 56.5216L56.1559 55.4404H59.5719H62.9852L63.0045 55.7363ZM86.3257 56.6405V57.8156L81.6919 57.8101L77.0553 57.8046L78.2041 56.6349L79.3501 55.4681H82.8379H86.3257V56.6405ZM77.105 55.7501C77.1243 55.7861 77.1491 55.8192 77.1602 55.8275C77.174 55.8358 77.0746 55.952 76.942 56.0847L76.699 56.328L76.5968 56.1787C76.5416 56.0985 76.4947 56.0183 76.4947 56.0045C76.4947 55.9768 76.9835 55.6976 77.0387 55.692C77.058 55.6893 77.0884 55.7169 77.105 55.7501ZM77.29 59.0904L77.5744 59.0876L77.4198 59.3033C77.3369 59.4222 77.2016 59.6102 77.1215 59.7236C76.8785 60.0692 76.8454 60.1217 76.7018 60.3208C76.6272 60.4259 76.5527 60.5282 76.5361 60.5448C76.5223 60.5614 76.4394 60.6748 76.3566 60.7992C76.2737 60.9236 76.2019 61.0204 76.1964 61.0121C76.1909 61.0066 76.2378 60.6886 76.3041 60.3015C76.4091 59.6683 76.4284 59.5908 76.5029 59.4775C76.5499 59.4083 76.5941 59.3475 76.6024 59.3392C76.6189 59.3254 76.6548 59.2701 76.7377 59.1374C76.7791 59.0655 76.7957 59.0599 76.8951 59.0765C76.9558 59.0876 77.1326 59.0931 77.29 59.0904ZM63.3111 59.3282C63.4022 59.4581 63.4878 59.5798 63.5016 59.5964C63.5182 59.6157 63.6066 59.7346 63.6977 59.8646L63.8661 60.0996L63.8993 60.5973C63.9158 60.8711 63.9379 61.1891 63.9462 61.3024L63.9628 61.5098L63.8993 61.4296C63.8634 61.3826 63.7502 61.2278 63.648 61.084C63.5458 60.9374 63.4547 60.8047 63.4409 60.7909C63.4271 60.7743 63.3553 60.6775 63.2807 60.5697C63.1288 60.3568 63.1233 60.3512 62.9106 60.0416C62.8278 59.9199 62.7532 59.8176 62.745 59.8093C62.7146 59.7844 62.2451 59.1208 62.2451 59.1069C62.2451 59.0959 62.4495 59.0904 62.698 59.0904H63.1481L63.3111 59.3282Z" fill="white"/>
<path d="M71.2201 23.1218C71.1511 23.1882 70.6291 23.65 70.0603 24.1532C68.9446 25.1321 68.2459 25.7487 67.4341 26.4648C67.1524 26.7137 66.6139 27.1865 66.2383 27.5128L65.5562 28.1073L65.57 28.2179C65.6473 28.7654 65.8904 32.1001 66.1803 36.5824C66.3543 39.2701 66.3515 39.2562 66.3819 39.3088C66.4233 39.3834 68.1659 41.6951 68.1824 41.6951C68.1907 41.6978 68.6077 40.9734 69.1131 40.0858L70.0271 38.4765L70.1127 37.163C70.1624 36.4414 70.2232 35.4819 70.2536 35.0339C70.284 34.586 70.3392 33.7454 70.3778 33.1675C70.527 30.8724 70.6181 29.4926 70.6512 28.9839C70.6761 28.5967 70.6982 28.4391 70.7258 28.4142C70.7479 28.3921 71.5902 27.7285 72.6009 26.9321C73.6116 26.1386 74.4401 25.4805 74.4428 25.4722C74.4483 25.4445 71.4438 23.0278 71.3886 23.0168C71.3637 23.0112 71.2892 23.0555 71.2201 23.1218Z" fill="white"/>
<path d="M67.2297 58.9383C66.7133 59.3696 66.2797 59.7401 66.2659 59.7623C66.2466 59.7899 66.3129 59.8867 66.4979 60.1107C66.6387 60.2793 66.7685 60.4176 66.7823 60.4176C66.8044 60.4176 68.5193 58.9991 68.6878 58.8443C68.732 58.8 68.7209 58.7807 68.4724 58.482C68.326 58.3078 68.199 58.1613 68.188 58.1585C68.1769 58.153 67.7461 58.5041 67.2297 58.9383Z" fill="white"/>
<path d="M66.8652 64.6482C66.7243 64.8141 66.6083 64.9662 66.6083 64.9856C66.6111 65.0271 68.4835 66.5977 68.5332 66.5977C68.5829 66.5977 69.0717 66.0059 69.0579 65.9644C69.0441 65.9285 67.1634 64.3441 67.1358 64.3441C67.1275 64.3441 67.0032 64.4796 66.8652 64.6482Z" fill="white"/>
<path d="M67.666 71.4725C67.1469 71.9094 66.7133 72.2744 66.7022 72.2854C66.6829 72.3076 67.2021 72.9435 67.238 72.9435C67.2766 72.9435 69.1794 71.3343 69.1711 71.3094C69.1573 71.2679 68.6491 70.6762 68.6298 70.6789C68.6188 70.6789 68.1852 71.0356 67.666 71.4725Z" fill="white"/>
<path d="M126.658 40.5669C125.747 41.3909 124.25 42.7458 123.33 43.5753C122.414 44.4049 121.328 45.3837 120.925 45.7515C120.519 46.1165 119.884 46.6889 119.517 47.0234C119.147 47.358 118.053 48.3451 117.089 49.2189C116.125 50.0899 115.333 50.8116 115.327 50.8227C115.325 50.8337 115.678 51.1904 116.114 51.6135C117.142 52.6117 121.726 57.0552 123.924 59.1871C124.866 60.0996 126.236 61.4269 126.967 62.1375C127.699 62.8509 128.304 63.4316 128.312 63.4316C128.32 63.4316 128.329 63.0362 128.326 62.5523V61.6757L127.139 60.5282C126.487 59.8978 125.885 59.3116 125.802 59.2259L125.65 59.0738L125.758 58.9162C125.827 58.8194 125.863 58.7392 125.854 58.7115C125.843 58.6728 125.846 58.6701 125.865 58.6977C125.885 58.7254 125.948 58.6562 126.117 58.4157C126.338 58.1005 126.371 58.0451 126.307 58.0839C126.288 58.0949 126.285 58.0922 126.296 58.07C126.307 58.0534 126.327 58.0451 126.34 58.0534C126.351 58.0617 126.412 58.0009 126.47 57.9207C126.664 57.6663 126.661 57.6829 126.506 57.47C126.429 57.3649 126.357 57.2792 126.343 57.2792C126.329 57.2792 126.307 57.2682 126.293 57.2543C126.28 57.2405 126.285 57.2377 126.307 57.2488C126.357 57.2764 126.349 57.2433 126.282 57.152C126.252 57.1078 126.216 57.0774 126.202 57.0857C126.191 57.094 126.164 57.0774 126.144 57.0497C126.108 57.0082 126.111 57.0055 126.155 57.0414C126.18 57.0608 126.202 57.0691 126.202 57.0608C126.202 57.0248 126.084 56.881 126.064 56.8921C126.053 56.9004 126.02 56.8783 125.992 56.8423L125.94 56.7815L126.004 56.834C126.037 56.8644 126.064 56.8783 126.064 56.8672C126.064 56.823 125.727 56.3806 125.705 56.3944C125.691 56.4027 125.672 56.3944 125.661 56.3778C125.65 56.3557 125.653 56.3529 125.672 56.364C125.722 56.3944 125.711 56.3557 125.647 56.2672C125.617 56.2229 125.578 56.1925 125.564 56.2008C125.551 56.2119 125.545 56.2008 125.553 56.1815C125.567 56.1372 125.344 55.8137 125.299 55.8137C125.28 55.8137 125.25 55.7944 125.23 55.7722C125.2 55.739 125.2 55.739 125.244 55.7695C125.269 55.7888 125.291 55.7971 125.291 55.7833C125.288 55.7418 124.935 55.2607 124.907 55.2607C124.891 55.2607 124.863 55.2441 124.844 55.222C124.816 55.1943 124.816 55.1888 124.844 55.2026C124.86 55.2137 124.877 55.2137 124.877 55.2026C124.877 55.1611 124.153 54.1685 124.131 54.1823C124.117 54.1906 124.098 54.1823 124.087 54.1657C124.076 54.1436 124.079 54.1408 124.098 54.1519C124.153 54.1851 124.137 54.1463 124.018 53.9749C123.957 53.8837 123.896 53.8145 123.883 53.8228C123.872 53.8311 123.844 53.8145 123.825 53.7896C123.797 53.7565 123.797 53.7509 123.822 53.7648C123.872 53.7952 123.863 53.7592 123.797 53.668C123.767 53.6237 123.728 53.5961 123.711 53.6044C123.692 53.6154 123.689 53.6099 123.7 53.5933C123.723 53.5546 123.474 53.1924 123.441 53.2145C123.427 53.2228 123.408 53.2145 123.397 53.1979C123.386 53.1758 123.388 53.173 123.408 53.1841C123.427 53.1951 123.441 53.1951 123.441 53.1841C123.441 53.1454 123.049 52.62 123.027 52.6338C123.016 52.6421 122.988 52.6255 122.969 52.5979C122.933 52.5564 122.935 52.5536 122.98 52.5896C123.049 52.6449 123.038 52.6034 122.941 52.4652C122.897 52.3988 122.847 52.349 122.833 52.3573C122.819 52.3656 122.8 52.3573 122.789 52.3407C122.778 52.3186 122.781 52.3158 122.8 52.3269C122.819 52.338 122.833 52.3324 122.833 52.3186C122.833 52.2965 122.19 52.2882 120.721 52.2882C119.467 52.2882 118.608 52.2771 118.608 52.2633C118.608 52.2495 118.453 52.0946 118.263 51.9177L117.92 51.5969H120.359H122.8L122.9 51.4614C123.002 51.3232 123.024 51.2734 122.966 51.3093C122.947 51.3204 122.944 51.3176 122.955 51.2955C122.966 51.2789 122.985 51.2706 122.999 51.2789C123.013 51.2872 123.049 51.2568 123.079 51.2126C123.143 51.1241 123.154 51.0854 123.104 51.1158C123.085 51.1268 123.082 51.1241 123.093 51.102C123.104 51.0854 123.123 51.0771 123.137 51.0854C123.17 51.1075 123.283 50.9388 123.259 50.9029C123.248 50.8835 123.25 50.878 123.27 50.889C123.286 50.8973 123.325 50.8697 123.355 50.8255C123.419 50.737 123.43 50.6983 123.38 50.7287C123.361 50.7397 123.358 50.737 123.369 50.7148C123.38 50.6983 123.399 50.69 123.413 50.6983C123.427 50.7066 123.463 50.6761 123.493 50.6319C123.557 50.5434 123.568 50.5047 123.518 50.5351C123.499 50.5462 123.496 50.5434 123.507 50.5213C123.518 50.5047 123.537 50.4964 123.551 50.5047C123.584 50.5268 123.971 49.971 123.949 49.9323C123.938 49.9157 123.941 49.9102 123.96 49.9213C123.977 49.9323 124.026 49.8853 124.073 49.8162C124.17 49.6779 124.181 49.6365 124.112 49.6918C124.068 49.7277 124.065 49.7249 124.101 49.6835C124.12 49.6558 124.148 49.6392 124.159 49.6475C124.173 49.6558 124.244 49.5756 124.322 49.4705C124.463 49.2825 124.49 49.2245 124.429 49.2632C124.41 49.2742 124.407 49.2715 124.418 49.2493C124.429 49.2327 124.449 49.2245 124.463 49.2327C124.493 49.2521 124.579 49.1138 124.556 49.0751C124.545 49.0585 124.548 49.053 124.568 49.0641C124.584 49.0724 124.623 49.0447 124.653 49.0005C124.717 48.912 124.728 48.8733 124.678 48.9037C124.659 48.9148 124.656 48.912 124.667 48.8899C124.678 48.8733 124.697 48.865 124.711 48.8733C124.747 48.8954 124.874 48.6936 124.857 48.641C124.849 48.6106 124.852 48.6078 124.869 48.63C124.885 48.6521 124.924 48.6217 124.998 48.5221C125.117 48.359 125.156 48.2843 125.098 48.3203C125.073 48.3341 125.067 48.3313 125.081 48.3092C125.092 48.2926 125.112 48.2843 125.125 48.2926C125.159 48.3147 125.272 48.1461 125.247 48.1101C125.236 48.0908 125.239 48.0852 125.255 48.0935C125.294 48.1184 125.357 48.041 125.33 47.9995C125.319 47.9802 125.321 47.9746 125.338 47.9829C125.377 48.0078 125.689 47.5709 125.661 47.5294C125.65 47.5101 125.653 47.5046 125.669 47.5129C125.686 47.5239 125.774 47.4299 125.868 47.2972C126.045 47.0511 126.07 47.0013 125.99 47.0649C125.946 47.1009 125.943 47.0981 125.979 47.0566C125.998 47.029 126.026 47.0124 126.037 47.0207C126.067 47.04 126.18 46.8713 126.158 46.8354C126.147 46.8188 126.15 46.8133 126.166 46.8216C126.202 46.8437 126.655 46.216 126.63 46.1773C126.619 46.1607 126.6 46.1579 126.583 46.1662C126.564 46.1773 126.561 46.1718 126.572 46.1552C126.597 46.1137 125.929 45.1763 125.89 45.2012C125.874 45.2095 125.871 45.204 125.882 45.1846C125.907 45.1487 125.794 44.98 125.761 45.0021C125.747 45.0104 125.727 45.0021 125.716 44.9855C125.705 44.9634 125.708 44.9607 125.727 44.9717C125.777 45.0021 125.766 44.9634 125.703 44.8749C125.672 44.8307 125.633 44.803 125.617 44.8113C125.598 44.8224 125.595 44.8169 125.606 44.7975C125.633 44.756 125.435 44.4851 125.396 44.5099C125.377 44.5182 125.374 44.5127 125.385 44.4934C125.413 44.4519 125.159 44.0952 125.12 44.1201C125.101 44.1339 125.098 44.1256 125.112 44.1062C125.123 44.0841 125.095 44.0205 125.04 43.9459L124.951 43.8187L125.02 43.7606C125.059 43.7274 125.821 43.0444 126.71 42.237L128.329 40.7715V39.9226C128.329 39.4526 128.326 39.071 128.323 39.071C128.318 39.071 127.569 39.7457 126.658 40.5669Z" fill="white"/>
</svg>
